<?xml version="1.0" encoding="UTF-8"?>
<!--
  CapsWriter · 菜单栏 template（mark only / 紧贴裁切 / 黑色 + 透明底）
  几何与 capswriter-mark.svg / icon-designer.html 完全一致，仅：
    1) viewBox 裁到 mark 包围盒 + 4 留白（5.24 12.26 76.69 71.94）
    2) ink 画黑（isTemplate=YES 时系统按深/浅栏自动反色，只用 alpha）
  叠压（mask）：气泡+尾巴(白显) → 波形(黑镂空) → Caps 勾边描边(黑镂空=白缝) → Caps 实体(白显)
-->
<svg xmlns="http://www.w3.org/2000/svg" width="76.69" height="71.94" viewBox="5.24 12.26 76.69 71.94">
  <defs>
    <mask id="ink" maskUnits="userSpaceOnUse" x="0" y="0" width="100" height="100">
      <rect x="0" y="0" width="100" height="100" fill="#000"/>
      <g fill="#fff">
        <rect x="24.85" y="16.26" width="53.08" height="41.29" rx="17.18"/>
        <path d="M35.46 56.24 L59.82 57.55 L33.20 73.22 Z"/>
      </g>
      <g fill="#000">
        <rect x="41.08" y="29.77" width="5.00" height="13.29" rx="2.50"/>
        <rect x="50.16" y="24.33" width="5.00" height="24.17" rx="2.50"/>
        <rect x="59.24" y="27.72" width="5.00" height="17.40" rx="2.50"/>
        <rect x="68.32" y="31.58" width="5.00" height="9.67" rx="2.50"/>
      </g>
      <g fill="#000" stroke="#000" stroke-width="5.75" stroke-linejoin="round" stroke-linecap="round">
        <path d="M30.75 33.28 L52.27 54.65 L40.56 54.65 L40.56 65.65 L20.95 65.65 L20.95 54.65 L9.24 54.65 Z"/>
        <path d="M18.98 70.35 L42.53 70.35 L42.53 80.20 L18.98 80.20 Z"/>
        <path d="M20.95 65.65 L40.56 65.65 L40.56 70.35 L20.95 70.35 Z"/>
      </g>
      <g fill="#fff">
        <path d="M30.75 33.28 L52.27 54.65 L40.56 54.65 L40.56 65.65 L20.95 65.65 L20.95 54.65 L9.24 54.65 Z"/>
        <path d="M18.98 70.35 L42.53 70.35 L42.53 80.20 L18.98 80.20 Z"/>
      </g>
    </mask>
  </defs>
  <rect x="5.24" y="12.26" width="76.69" height="71.94" fill="#000000" mask="url(#ink)"/>
</svg>
