<?xml version="1.0" encoding="UTF-8"?>
<svg xmlns="http://www.w3.org/2000/svg" viewBox="0 0 100 100" width="1024" height="1024">
  <defs>
    <clipPath id="clip"><rect x="3" y="3" width="94" height="94" rx="22"/></clipPath>
    <mask id="ink" maskUnits="userSpaceOnUse" x="0" y="0" width="100" height="100">
    <rect x="0" y="0" width="100" height="100" fill="#000"/>
    <g fill="#fff"><rect x="24.85" y="16.26" width="53.08" height="41.29" rx="17.18"/><path d="M35.46 56.24 L59.82 57.55 L32.99 73.82 Z"/></g>
    <g fill="#000"><rect x="41.08" y="29.77" width="5.00" height="13.29" rx="2.50"/><rect x="50.16" y="24.33" width="5.00" height="24.17" rx="2.50"/><rect x="59.24" y="27.72" width="5.00" height="17.40" rx="2.50"/><rect x="68.32" y="31.58" width="5.00" height="9.67" rx="2.50"/></g>
    <g fill="#000" stroke="#000" stroke-width="5.75" stroke-linejoin="round" stroke-linecap="round"><path d="M30.75 33.88 L52.27 54.69 L40.56 54.69 L40.56 65.41 L20.95 65.41 L20.95 54.69 L9.24 54.69 Z"/><path d="M18.98 70.36 L42.53 70.36 L42.53 78.92 L18.98 78.92 Z"/><path d="M20.95 65.41 L40.56 65.41 L40.56 70.36 L20.95 70.36 Z"/></g>
    <g fill="#fff"><path d="M30.75 33.88 L52.27 54.69 L40.56 54.69 L40.56 65.41 L20.95 65.41 L20.95 54.69 L9.24 54.69 Z"/><path d="M18.98 70.36 L42.53 70.36 L42.53 78.92 L18.98 78.92 Z"/></g>
</mask>
  </defs>
  <g clip-path="url(#clip)">
    <rect x="0" y="0" width="100" height="100" fill="#ffffff"/>
    <g transform="translate(50 50) scale(1.0920) translate(-43.60 -47.50)">
      <rect x="0" y="0" width="100" height="100" fill="#111111" mask="url(#ink)"/>
    </g>
  </g>
</svg>
